<svg xmlns="http://www.w3.org/2000/svg" xmlns:xlink="http://www.w3.org/1999/xlink" width="500" zoomAndPan="magnify" viewBox="0 0 375 374.999991" height="500" preserveAspectRatio="xMidYMid meet" version="1.0"><defs><g/><clipPath id="id1"><path d="M 73 163 L 115 163 L 115 217 L 73 217 Z M 73 163 " clip-rule="nonzero"/></clipPath><clipPath id="id2"><path d="M 113.078125 217.082031 L 72.589844 216.144531 L 73.839844 162.160156 L 114.328125 163.097656 Z M 113.078125 217.082031 " clip-rule="nonzero"/></clipPath><clipPath id="id3"><path d="M 113.078125 217.082031 L 72.589844 216.144531 L 73.839844 162.160156 L 114.328125 163.097656 Z M 113.078125 217.082031 " clip-rule="nonzero"/></clipPath><clipPath id="id4"><path d="M 84 173 L 112 173 L 112 208 L 84 208 Z M 84 173 " clip-rule="nonzero"/></clipPath><clipPath id="id5"><path d="M 110.453125 207.617188 L 84.210938 207.007812 L 85.011719 172.515625 L 111.253906 173.125 Z M 110.453125 207.617188 " clip-rule="nonzero"/></clipPath><clipPath id="id6"><path d="M 110.453125 207.617188 L 84.210938 207.007812 L 85.011719 172.515625 L 111.253906 173.125 Z M 110.453125 207.617188 " clip-rule="nonzero"/></clipPath><clipPath id="id7"><path d="M 94 176 L 114 176 L 114 204 L 94 204 Z M 94 176 " clip-rule="nonzero"/></clipPath><clipPath id="id8"><path d="M 113.394531 203.097656 L 93.898438 202.644531 L 94.507812 176.402344 L 114 176.855469 Z M 113.394531 203.097656 " clip-rule="nonzero"/></clipPath><clipPath id="id9"><path d="M 113.394531 203.097656 L 93.898438 202.644531 L 94.507812 176.402344 L 114 176.855469 Z M 113.394531 203.097656 " clip-rule="nonzero"/></clipPath><clipPath id="id10"><path d="M 109 161 L 153 161 L 153 218 L 109 218 Z M 109 161 " clip-rule="nonzero"/></clipPath><clipPath id="id11"><path d="M 151.144531 217.679688 L 109.152344 216.707031 L 110.457031 160.472656 L 152.445312 161.445312 Z M 151.144531 217.679688 " clip-rule="nonzero"/></clipPath><clipPath id="id12"><path d="M 151.144531 217.679688 L 109.152344 216.707031 L 110.457031 160.472656 L 152.445312 161.445312 Z M 151.144531 217.679688 " clip-rule="nonzero"/></clipPath><clipPath id="id13"><path d="M 125 172 L 153 172 L 153 209 L 125 209 Z M 125 172 " clip-rule="nonzero"/></clipPath><clipPath id="id14"><path d="M 151.601562 209.023438 L 124.609375 208.394531 L 125.460938 171.65625 L 152.453125 172.28125 Z M 151.601562 209.023438 " clip-rule="nonzero"/></clipPath><clipPath id="id15"><path d="M 151.601562 209.023438 L 124.609375 208.394531 L 125.460938 171.65625 L 152.453125 172.28125 Z M 151.601562 209.023438 " clip-rule="nonzero"/></clipPath><clipPath id="id16"><path d="M 129 177 L 150 177 L 150 205 L 129 205 Z M 129 177 " clip-rule="nonzero"/></clipPath><clipPath id="id17"><path d="M 149.371094 204.289062 L 129.125 203.820312 L 129.75 176.828125 L 149.996094 177.296875 Z M 149.371094 204.289062 " clip-rule="nonzero"/></clipPath><clipPath id="id18"><path d="M 149.371094 204.289062 L 129.125 203.820312 L 129.75 176.828125 L 149.996094 177.296875 Z M 149.371094 204.289062 " clip-rule="nonzero"/></clipPath></defs><path fill="#0eac43" d="M 117.273438 255.320312 C 99.957031 255.320312 83.648438 248.578125 71.410156 236.3125 C 59.144531 224.078125 52.402344 207.769531 52.402344 190.449219 C 52.402344 173.128906 59.144531 156.820312 71.410156 144.582031 C 83.648438 132.316406 99.957031 125.578125 117.273438 125.578125 C 134.59375 125.578125 150.902344 132.316406 163.140625 144.582031 C 175.40625 156.84375 182.144531 173.128906 182.144531 190.449219 C 182.144531 207.769531 175.40625 224.078125 163.140625 236.3125 C 150.902344 248.578125 134.59375 255.320312 117.273438 255.320312 Z M 117.273438 129.464844 C 100.992188 129.464844 85.667969 135.816406 74.15625 147.332031 C 62.644531 158.84375 56.292969 174.164062 56.292969 190.449219 C 56.292969 206.730469 62.644531 222.054688 74.15625 233.566406 C 85.667969 245.078125 100.992188 251.429688 117.273438 251.429688 C 133.558594 251.429688 148.878906 245.078125 160.394531 233.566406 C 171.90625 222.054688 178.257812 206.730469 178.257812 190.449219 C 178.257812 174.164062 171.90625 158.84375 160.394531 147.332031 C 148.878906 135.816406 133.558594 129.464844 117.273438 129.464844 Z M 117.273438 129.464844 " fill-opacity="1" fill-rule="nonzero"/><g clip-path="url(#id1)"><g clip-path="url(#id2)"><g clip-path="url(#id3)"><path fill="#0eac43" d="M 110.707031 163.046875 C 109.53125 163.019531 108.171875 163.492188 106.761719 164.429688 L 76.316406 184.234375 C 74.351562 185.492188 73.257812 187.277344 73.214844 189.171875 C 73.167969 191.066406 74.179688 192.902344 76.085938 194.25 L 105.535156 215.445312 C 106.902344 216.445312 108.28125 216.9375 109.457031 216.964844 C 111.6875 217.019531 113.121094 215.242188 113.1875 212.253906 L 114.21875 167.929688 C 114.285156 164.941406 112.9375 163.097656 110.707031 163.046875 Z M 110.707031 163.046875 " fill-opacity="1" fill-rule="nonzero"/></g></g></g><g clip-path="url(#id4)"><g clip-path="url(#id5)"><g clip-path="url(#id6)"><path fill="#0eac43" d="M 108.90625 173.097656 C 108.144531 173.078125 107.265625 173.378906 106.347656 173.976562 L 86.621094 186.621094 C 85.347656 187.425781 84.640625 188.566406 84.613281 189.777344 C 84.582031 190.984375 85.238281 192.15625 86.472656 193.019531 L 105.566406 206.5625 C 106.453125 207.203125 107.34375 207.519531 108.109375 207.539062 C 109.554688 207.570312 110.480469 206.4375 110.527344 204.527344 L 111.183594 176.214844 C 111.226562 174.304688 110.355469 173.128906 108.90625 173.097656 Z M 108.90625 173.097656 " fill-opacity="1" fill-rule="nonzero"/></g></g></g><g clip-path="url(#id7)"><g clip-path="url(#id8)"><g clip-path="url(#id9)"><path fill="#0eac43" d="M 112.257812 176.835938 C 111.691406 176.824219 111.035156 177.054688 110.355469 177.507812 L 95.699219 187.132812 C 94.75 187.746094 94.222656 188.613281 94.203125 189.535156 C 94.179688 190.453125 94.667969 191.347656 95.585938 192 L 109.761719 202.292969 C 110.421875 202.78125 111.082031 203.019531 111.652344 203.035156 C 112.726562 203.058594 113.414062 202.195312 113.449219 200.742188 L 113.945312 179.207031 C 113.980469 177.757812 113.332031 176.863281 112.257812 176.835938 Z M 112.257812 176.835938 " fill-opacity="1" fill-rule="nonzero"/></g></g></g><g clip-path="url(#id10)"><g clip-path="url(#id11)"><g clip-path="url(#id12)"><path fill="#0eac43" d="M 148.691406 161.394531 C 147.46875 161.367188 146.0625 161.859375 144.597656 162.835938 L 113.023438 183.464844 C 110.984375 184.777344 109.851562 186.636719 109.804688 188.609375 C 109.757812 190.582031 110.808594 192.492188 112.785156 193.898438 L 143.320312 215.96875 C 144.738281 217.011719 146.167969 217.527344 147.390625 217.554688 C 149.703125 217.609375 151.1875 215.757812 151.257812 212.644531 L 152.328125 166.480469 C 152.402344 163.367188 151.003906 161.449219 148.691406 161.394531 Z M 148.691406 161.394531 " fill-opacity="1" fill-rule="nonzero"/></g></g></g><g clip-path="url(#id13)"><g clip-path="url(#id14)"><g clip-path="url(#id15)"><path fill="#0eac43" d="M 150.042969 172.25 C 149.253906 172.230469 148.351562 172.554688 147.410156 173.191406 L 127.105469 186.679688 C 125.796875 187.535156 125.066406 188.75 125.035156 190.039062 C 125.007812 191.328125 125.679688 192.578125 126.949219 193.496094 L 146.574219 207.90625 C 147.488281 208.585938 148.40625 208.925781 149.191406 208.941406 C 150.679688 208.976562 151.632812 207.765625 151.679688 205.734375 L 152.378906 175.570312 C 152.425781 173.539062 151.527344 172.285156 150.042969 172.25 Z M 150.042969 172.25 " fill-opacity="1" fill-rule="nonzero"/></g></g></g><g clip-path="url(#id16)"><g clip-path="url(#id17)"><g clip-path="url(#id18)"><path fill="#0eac43" d="M 148.183594 177.277344 C 147.59375 177.261719 146.917969 177.5 146.210938 177.964844 L 130.988281 187.863281 C 130.007812 188.496094 129.460938 189.386719 129.4375 190.332031 C 129.414062 191.28125 129.921875 192.199219 130.875 192.871094 L 145.597656 203.464844 C 146.28125 203.964844 146.972656 204.210938 147.558594 204.226562 C 148.675781 204.25 149.390625 203.363281 149.425781 201.871094 L 149.9375 179.714844 C 149.972656 178.222656 149.300781 177.300781 148.183594 177.277344 Z M 148.183594 177.277344 " fill-opacity="1" fill-rule="nonzero"/></g></g></g><g fill="#0eac43" fill-opacity="1"><g transform="translate(11.940858, 206.624972)"><g><path d="M 9.042969 -1.414062 L 9.042969 -40.488281 L 23.195312 -40.488281 C 25.964844 -40.488281 28.488281 -39.378906 30.335938 -37.535156 C 36.671875 -31.132812 32.242188 -19.9375 23.195312 -19.9375 C 21.660156 -19.9375 20.429688 -18.152344 21.660156 -16.550781 L 33.042969 -0.246094 C 34.519531 1.96875 37.902344 -0.429688 36.363281 -2.644531 L 26.828125 -16.304688 C 29.289062 -16.921875 31.503906 -18.273438 33.289062 -20.058594 C 42.148438 -29.164062 35.808594 -44.609375 23.195312 -44.609375 L 7.015625 -44.609375 C 5.90625 -44.609375 4.921875 -43.6875 4.921875 -42.578125 L 4.921875 -1.414062 C 4.921875 1.292969 9.042969 1.292969 9.042969 -1.414062 Z M 22.519531 -24.058594 C 25.902344 -24.058594 28.734375 -26.703125 28.734375 -30.148438 C 28.734375 -33.289062 26.273438 -36.425781 22.519531 -36.425781 L 15.199219 -36.425781 C 12.492188 -36.425781 12.492188 -32.304688 15.199219 -32.304688 L 22.519531 -32.304688 C 23.6875 -32.304688 24.671875 -31.441406 24.671875 -30.210938 C 24.671875 -27.8125 22.398438 -28.121094 20.488281 -28.121094 C 17.167969 -28.121094 17.289062 -24.242188 20.488281 -24.058594 C 21.167969 -23.996094 21.964844 -24.058594 22.519531 -24.058594 Z M 26.335938 -2.644531 L 16.921875 -16.121094 C 15.75 -17.660156 13.167969 -17.042969 13.167969 -14.828125 L 13.167969 -1.414062 C 13.167969 1.292969 17.289062 1.292969 17.289062 -1.414062 L 17.289062 -8.429688 L 22.949219 -0.246094 C 24.550781 1.96875 27.875 -0.429688 26.335938 -2.644531 Z M 26.335938 -2.644531 "/></g></g></g><g fill="#0eac43" fill-opacity="1"><g transform="translate(54.022887, 206.624972)"><g/></g></g><g fill="#0eac43" fill-opacity="1"><g transform="translate(75.187557, 206.624972)"><g/></g></g><g fill="#0eac43" fill-opacity="1"><g transform="translate(96.352228, 206.624972)"><g/></g></g><g fill="#0eac43" fill-opacity="1"><g transform="translate(117.516901, 206.624972)"><g/></g></g><g fill="#0eac43" fill-opacity="1"><g transform="translate(138.681569, 206.624972)"><g/></g></g><g fill="#0eac43" fill-opacity="1"><g transform="translate(159.846237, 206.624972)"><g/></g></g><g fill="#0eac43" fill-opacity="1"><g transform="translate(181.007257, 206.624972)"><g><path d="M 51.992188 -43.5625 L 36.425781 -5.230469 L 30.089844 -20.675781 C 29.289062 -22.582031 27.011719 -22.457031 26.210938 -20.675781 L 19.9375 -5.230469 L 4.308594 -43.5625 C 3.9375 -44.609375 2.707031 -45.101562 1.660156 -44.671875 C 0.675781 -44.238281 0.125 -43.070312 0.492188 -42.023438 L 18.027344 0.863281 C 18.707031 2.644531 21.105469 2.644531 21.78125 0.921875 L 28.121094 -14.644531 L 34.457031 0.921875 C 35.195312 2.585938 37.535156 2.644531 38.273438 0.921875 L 55.746094 -42.023438 C 56.238281 -43.070312 55.683594 -44.238281 54.699219 -44.671875 C 53.652344 -45.101562 52.421875 -44.609375 51.992188 -43.5625 Z M 9.785156 -42.023438 L 18.027344 -21.84375 C 18.460938 -20.734375 19.691406 -20.304688 20.734375 -20.675781 C 21.226562 -20.859375 21.597656 -21.351562 21.78125 -21.84375 L 28.121094 -37.347656 L 34.457031 -21.84375 C 34.949219 -20.734375 36.117188 -20.304688 37.164062 -20.675781 C 37.71875 -20.859375 38.085938 -21.351562 38.273438 -21.84375 L 46.515625 -42.023438 C 46.949219 -43.070312 46.394531 -44.238281 45.410156 -44.671875 C 44.363281 -45.101562 43.132812 -44.609375 42.761719 -43.5625 L 36.425781 -27.996094 L 30.089844 -43.5625 C 29.84375 -43.992188 29.472656 -44.484375 28.917969 -44.671875 C 27.875 -45.101562 26.640625 -44.609375 26.273438 -43.5625 L 19.9375 -27.996094 L 13.597656 -43.5625 C 13.167969 -44.609375 12 -45.101562 10.953125 -44.671875 C 9.90625 -44.238281 9.351562 -43.070312 9.785156 -42.023438 Z M 9.785156 -42.023438 "/></g></g></g><g fill="#0eac43" fill-opacity="1"><g transform="translate(241.05474, 206.624972)"><g><path d="M 9.042969 -1.414062 L 9.042969 -42.578125 C 9.042969 -43.6875 8.121094 -44.609375 7.015625 -44.609375 C 5.84375 -44.609375 4.921875 -43.6875 4.921875 -42.578125 L 4.921875 -1.414062 C 4.921875 -0.308594 5.84375 0.617188 7.015625 0.617188 C 8.121094 0.617188 9.042969 -0.308594 9.042969 -1.414062 Z M 17.289062 -1.414062 L 17.289062 -42.578125 C 17.289062 -43.6875 16.367188 -44.609375 15.257812 -44.609375 C 14.089844 -44.609375 13.167969 -43.6875 13.167969 -42.578125 L 13.167969 -1.414062 C 13.167969 -0.308594 14.089844 0.617188 15.257812 0.617188 C 16.367188 0.617188 17.289062 -0.308594 17.289062 -1.414062 Z M 17.289062 -1.414062 "/></g></g></g><g fill="#0eac43" fill-opacity="1"><g transform="translate(267.018241, 206.624972)"><g><path d="M 12.738281 -41.347656 L 30.582031 -15.75 C 31.257812 -14.828125 32.488281 -14.582031 33.410156 -15.257812 C 34.027344 -15.628906 34.332031 -16.304688 34.332031 -16.980469 L 34.332031 -42.578125 C 34.332031 -43.6875 33.410156 -44.546875 32.304688 -44.546875 C 31.195312 -44.546875 30.210938 -43.6875 30.210938 -42.578125 L 30.210938 -23.441406 L 16.058594 -43.6875 C 15.445312 -44.609375 14.152344 -44.917969 13.230469 -44.179688 C 12.304688 -43.5625 12.058594 -42.332031 12.738281 -41.347656 Z M 8.984375 -1.414062 L 8.984375 -42.578125 C 8.984375 -43.6875 8.121094 -44.546875 6.953125 -44.546875 C 5.84375 -44.546875 4.921875 -43.6875 4.921875 -42.578125 L 4.921875 -1.414062 C 4.921875 -0.308594 5.84375 0.675781 6.953125 0.675781 C 8.121094 0.675781 8.984375 -0.308594 8.984375 -1.414062 Z M 42.578125 -1.414062 L 42.578125 -42.578125 C 42.578125 -43.6875 41.65625 -44.546875 40.488281 -44.546875 C 39.378906 -44.546875 38.457031 -43.6875 38.457031 -42.578125 L 38.457031 -1.414062 C 38.457031 -0.308594 39.378906 0.675781 40.488281 0.675781 C 41.65625 0.675781 42.578125 -0.308594 42.578125 -1.414062 Z M 34.765625 -2.585938 L 16.859375 -28.179688 C 16.242188 -29.164062 14.890625 -29.410156 14.027344 -28.671875 C 13.414062 -28.304688 13.167969 -27.6875 13.167969 -27.011719 L 13.167969 -1.414062 C 13.167969 -0.308594 14.027344 0.617188 15.136719 0.617188 C 16.304688 0.617188 17.226562 -0.308594 17.226562 -1.414062 L 17.226562 -20.488281 L 31.378906 -0.246094 C 32.058594 0.675781 33.289062 0.921875 34.273438 0.308594 C 35.132812 -0.429688 35.378906 -1.660156 34.765625 -2.585938 Z M 34.765625 -2.585938 "/></g></g></g><g fill="#0eac43" fill-opacity="1"><g transform="translate(318.267868, 206.624972)"><g><path d="M 9.042969 -1.414062 L 9.042969 -40.488281 L 19.257812 -40.488281 C 30.273438 -40.488281 37.78125 -32.734375 37.78125 -22.027344 C 37.78125 -11.261719 30.273438 -3.507812 19.257812 -3.507812 L 15.136719 -3.507812 C 14.027344 -3.507812 13.105469 -2.585938 13.105469 -1.414062 C 13.105469 -0.308594 14.027344 0.617188 15.136719 0.617188 L 19.257812 0.617188 C 32.609375 0.617188 41.902344 -8.984375 41.902344 -22.027344 C 41.902344 -35.011719 32.609375 -44.609375 19.257812 -44.609375 L 6.953125 -44.609375 C 5.84375 -44.609375 4.921875 -43.6875 4.921875 -42.578125 L 4.921875 -1.414062 C 4.921875 -0.308594 5.84375 0.617188 6.953125 0.617188 C 8.121094 0.617188 9.042969 -0.308594 9.042969 -1.414062 Z M 15.199219 -7.566406 L 19.257812 -7.566406 C 27.6875 -7.566406 33.289062 -13.90625 33.289062 -22.027344 C 33.289062 -30.089844 27.6875 -36.425781 19.257812 -36.425781 L 15.199219 -36.425781 C 14.089844 -36.425781 13.167969 -35.503906 13.167969 -34.332031 L 13.167969 -17.90625 C 13.167969 -16.734375 14.089844 -15.8125 15.199219 -15.8125 C 16.367188 -15.8125 17.226562 -16.734375 17.226562 -17.90625 L 17.226562 -32.304688 L 19.257812 -32.304688 C 25.351562 -32.304688 29.226562 -27.8125 29.226562 -22.027344 C 29.226562 -16.183594 25.351562 -11.691406 19.257812 -11.691406 L 15.199219 -11.691406 C 14.089844 -11.691406 13.167969 -10.769531 13.167969 -9.660156 C 13.167969 -8.492188 14.089844 -7.566406 15.199219 -7.566406 Z M 15.199219 -7.566406 "/></g></g></g></svg>